<svg xmlns="http://www.w3.org/2000/svg" width="451.844" height="320.382" viewBox="0 0 451.844 320.382">
  <g id="OBJECTS" transform="translate(-25.078 -78.887)">
    <g id="Group_22" data-name="Group 22">
      <g id="Group_7" data-name="Group 7">
        <rect id="Rectangle_2" data-name="Rectangle 2" width="47.051" height="62.427" transform="translate(202.05 140.567)" fill="#ffd817"/>
        <line id="Line_1" data-name="Line 1" x2="9.226" transform="translate(207.381 151.551)" fill="none" stroke="#ffa200" stroke-miterlimit="10" stroke-width="0.879"/>
        <line id="Line_2" data-name="Line 2" x2="34.647" transform="translate(207.381 160.761)" fill="none" stroke="#ffa200" stroke-miterlimit="10" stroke-width="0.879"/>
        <line id="Line_3" data-name="Line 3" x2="34.647" transform="translate(207.381 169.971)" fill="none" stroke="#ffa200" stroke-miterlimit="10" stroke-width="0.879"/>
        <line id="Line_4" data-name="Line 4" x2="34.647" transform="translate(207.381 179.181)" fill="none" stroke="#ffa200" stroke-miterlimit="10" stroke-width="0.879"/>
        <line id="Line_5" data-name="Line 5" x2="34.647" transform="translate(207.381 188.391)" fill="none" stroke="#ffa200" stroke-miterlimit="10" stroke-width="0.879"/>
      </g>
      <g id="Group_8" data-name="Group 8">
        <path id="Path_1" data-name="Path 1" d="M51.9,180.425s6.557-19.828,9.179-27.3,4.4-22.915-4.6-24.643-12.643,10.98-12.551,22.878C44.02,163.221,51.9,180.425,51.9,180.425Z" fill="#f70"/>
        <path id="Path_2" data-name="Path 2" d="M50.337,212.216s-6.531-38.031-18.467-33.982S31.272,208.855,50.337,212.216Z" fill="#f70"/>
        <path id="Path_3" data-name="Path 3" d="M56.319,199.388s-1.083-12.936,4.649-24.224,12.92-10.119,14.363-4.973C78.484,181.437,60.7,192.07,56.319,199.388Z" fill="#f70"/>
        <path id="Path_4" data-name="Path 4" d="M59.425,230.956a85.452,85.452,0,0,1,3.584-24.641c3.989-13.49,14.616-17.8,20.128-11.368,2.932,3.418-.919,18.14-10.356,24.826A106.849,106.849,0,0,0,59.425,230.956Z" fill="#f70"/>
        <path id="Path_5" data-name="Path 5" d="M56.516,240.913s-6.885-17.946-16.6-22.357S27.6,221.03,30.059,228.12,41.984,241.688,56.516,240.913Z" fill="#f70"/>
        <path id="Path_6" data-name="Path 6" d="M55.6,129.523S43.447,187.54,62.928,255.812" fill="none" stroke="#995417" stroke-miterlimit="10" stroke-width="1.022"/>
        <path id="Path_7" data-name="Path 7" d="M75.932,197.34c-.316.321-14.365,22.613-17.892,38.589" fill="none" stroke="#995417" stroke-miterlimit="10" stroke-width="1.022"/>
        <path id="Path_8" data-name="Path 8" d="M33.545,221.662s4.809,9.683,25.95,20.879" fill="none" stroke="#995417" stroke-miterlimit="10" stroke-width="1.022"/>
        <path id="Path_9" data-name="Path 9" d="M31.02,182.653c1.591,10.576,6.416,21.829,23.365,31.563" fill="none" stroke="#995417" stroke-miterlimit="10" stroke-width="1.022"/>
        <path id="Path_10" data-name="Path 10" d="M71.382,169.318S60.7,181.307,53.689,208.428" fill="none" stroke="#995417" stroke-miterlimit="10" stroke-width="1.022"/>
      </g>
      <g id="Group_9" data-name="Group 9">
        <path id="Path_11" data-name="Path 11" d="M462.023,245.261s-1.7-13.052-2.438-17.989,0-14.705,5.777-14.705,6.521,8.3,5.051,15.65C468.946,235.549,462.023,245.261,462.023,245.261Z" fill="#f70"/>
        <path id="Path_12" data-name="Path 12" d="M459.217,265.123s8.56-22.763,15.466-18.839S471.416,265.308,459.217,265.123Z" fill="#f70"/>
        <path id="Path_13" data-name="Path 13" d="M457.038,256.473s2.207-7.878,0-15.546-6.795-7.8-8.3-4.783C445.451,242.729,455.2,251.424,457.038,256.473Z" fill="#f70"/>
        <path id="Path_14" data-name="Path 14" d="M465.782,213.316s.63,37.353-19.537,77.295" fill="none" stroke="#995417" stroke-miterlimit="10" stroke-width="1.022"/>
        <path id="Path_15" data-name="Path 15" d="M474.684,249.12c-2.24,6.357-6.564,12.749-18.21,16.76" fill="none" stroke="#995417" stroke-miterlimit="10" stroke-width="1.022"/>
        <path id="Path_16" data-name="Path 16" d="M451.287,236.072s5.187,8.689,6.305,26.309" fill="none" stroke="#995417" stroke-miterlimit="10" stroke-width="1.022"/>
      </g>
      <path id="Path_17" data-name="Path 17" d="M395.4,185.582h48.648c6.583,0,12.289.658,12.728-2.414s-4.252-3.731-6.186-6.364-1.275-11.85-9.395-11.85-10.215,6.527-13.337,5.348-4.877-15.224-12.777-15-12.586,18.4-16.756,16.9-12.211-.877-13.089,4.389-16.174,2.658-16.666,6.8S383.624,185.582,395.4,185.582Z" fill="#a6b1ed"/>
      <g id="Group_10" data-name="Group 10">
        <path id="Path_18" data-name="Path 18" d="M381.921,205.574a26.612,26.612,0,0,1,7.546,2.461,22.408,22.408,0,0,1,5.442,3.846,16.331,16.331,0,0,1,3.334,4.536,12.886,12.886,0,0,1,1.316,4.45,1.9,1.9,0,0,1-.657,1.683,2.537,2.537,0,0,1-1.713.649h-6.142a3.686,3.686,0,0,1-2.237-.562,5.767,5.767,0,0,1-1.36-1.511,11.356,11.356,0,0,0-3.993-3.759q-2.679-1.6-7.942-1.6a19.328,19.328,0,0,0-4.343.476,12.63,12.63,0,0,0-3.6,1.382,7.348,7.348,0,0,0-2.413,2.2,5.109,5.109,0,0,0-.877,2.937,5.161,5.161,0,0,0,.964,3.24,7.512,7.512,0,0,0,3.116,2.16,34.356,34.356,0,0,0,5.527,1.685q3.379.777,8.2,1.813A51.687,51.687,0,0,1,391,234.3a20.4,20.4,0,0,1,5.967,3.629,12.241,12.241,0,0,1,3.335,4.882,18.37,18.37,0,0,1,1.01,6.307A15.25,15.25,0,0,1,400,255.426a16.3,16.3,0,0,1-3.817,5.27,21.189,21.189,0,0,1-6.1,3.889,30.687,30.687,0,0,1-8.162,2.159v5.876a2.228,2.228,0,0,1-.7,1.641,2.3,2.3,0,0,1-1.669.691h-7.106a2.293,2.293,0,0,1-1.667-.691,2.223,2.223,0,0,1-.7-1.641v-5.876a32.351,32.351,0,0,1-7.416-2.03,24.509,24.509,0,0,1-6.053-3.5,17.123,17.123,0,0,1-4.169-4.795,13.18,13.18,0,0,1-1.754-6,1.9,1.9,0,0,1,.657-1.686,2.538,2.538,0,0,1,1.713-.648H359.2a4.159,4.159,0,0,1,2.28.519,3.909,3.909,0,0,1,1.317,1.555,16.279,16.279,0,0,0,1.492,2.247,8.12,8.12,0,0,0,2.367,1.987,14.53,14.53,0,0,0,3.73,1.424,23.259,23.259,0,0,0,5.573.563,32.544,32.544,0,0,0,5.089-.389,15,15,0,0,0,4.3-1.3,9.158,9.158,0,0,0,2.983-2.247,4.949,4.949,0,0,0,1.14-3.326,4.185,4.185,0,0,0-1.227-3.111,9.934,9.934,0,0,0-3.73-2.074,52.972,52.972,0,0,0-6.186-1.641q-3.684-.777-8.512-1.987a46.013,46.013,0,0,1-7.677-2.463,18.116,18.116,0,0,1-5.442-3.5,13.1,13.1,0,0,1-3.2-4.882,19.128,19.128,0,0,1-1.053-6.7,14.679,14.679,0,0,1,1.316-6.221A17.514,17.514,0,0,1,357.4,211.4a19.729,19.729,0,0,1,5.573-3.8,28.887,28.887,0,0,1,7.106-2.2v-5.875a2.223,2.223,0,0,1,.7-1.641,2.294,2.294,0,0,1,1.667-.692h7.106a2.3,2.3,0,0,1,1.669.692,2.228,2.228,0,0,1,.7,1.641Z" fill="#ffeb8a"/>
      </g>
      <g id="Group_12" data-name="Group 12">
        <g id="Group_11" data-name="Group 11">
          <path id="Path_19" data-name="Path 19" d="M322.629,367.367H462.3s7.666-1.09,3.333-9.045-6.667-7.955-1.333-24.955,15-48.352,7.333-50.009-16,22.43-25.667,23.386,12-82.854-11.666-83.616-33.667,56.239-42,66.239-20.473-7.039-29.46,5.877-6.484,54.744-15.293,50.458C332.822,338.538,322.629,367.367,322.629,367.367Z" fill="#8ead46"/>
          <path id="Path_20" data-name="Path 20" d="M434.3,223.128s-15.836,93.241-38.17,144.239" fill="none" stroke="#525730" stroke-miterlimit="10" stroke-width="0.877"/>
          <path id="Path_21" data-name="Path 21" d="M471.632,283.358S449.3,341.031,422.8,367.367" fill="none" stroke="#525730" stroke-miterlimit="10" stroke-width="0.877"/>
          <path id="Path_22" data-name="Path 22" d="M367.826,290.906s13.97,38.375,13.47,76.461" fill="none" stroke="#525730" stroke-miterlimit="10" stroke-width="0.877"/>
          <path id="Path_23" data-name="Path 23" d="M332.079,350.613a61.056,61.056,0,0,0,9.884,16.754" fill="none" stroke="#525730" stroke-miterlimit="10" stroke-width="0.877"/>
          <path id="Path_24" data-name="Path 24" d="M360.381,300.139a133.534,133.534,0,0,0,12.65,7.9" fill="none" stroke="#525730" stroke-miterlimit="10" stroke-width="0.877"/>
          <path id="Path_25" data-name="Path 25" d="M356.625,316.369a111.678,111.678,0,0,0,23.034,24.916" fill="none" stroke="#525730" stroke-miterlimit="10" stroke-width="0.877"/>
          <path id="Path_26" data-name="Path 26" d="M395.181,284.377s-1.812,40.365,8.276,64.22" fill="none" stroke="#525730" stroke-miterlimit="10" stroke-width="0.877"/>
          <path id="Path_27" data-name="Path 27" d="M409.727,247.285s-1.431,43.621,6.028,60.759" fill="none" stroke="#525730" stroke-miterlimit="10" stroke-width="0.877"/>
          <path id="Path_28" data-name="Path 28" d="M443.841,286.527s-14.687,30-34.449,43.922" fill="none" stroke="#525730" stroke-miterlimit="10" stroke-width="0.877"/>
          <path id="Path_29" data-name="Path 29" d="M445.844,252.952s-12.043,11.92-21.67,20.585" fill="none" stroke="#525730" stroke-miterlimit="10" stroke-width="0.877"/>
          <line id="Line_6" data-name="Line 6" x2="5.803" y2="25.24" transform="translate(422.796 227.713)" fill="none" stroke="#525730" stroke-miterlimit="10" stroke-width="0.877"/>
          <path id="Path_30" data-name="Path 30" d="M473.072,301.457a94.751,94.751,0,0,1-16.366,14.912" fill="none" stroke="#525730" stroke-miterlimit="10" stroke-width="0.877"/>
          <path id="Path_31" data-name="Path 31" d="M464.3,333.367s-17.8,16.88-32.4,23.608" fill="none" stroke="#525730" stroke-miterlimit="10" stroke-width="0.877"/>
        </g>
        <line id="Line_7" data-name="Line 7" x1="166.446" transform="translate(309.922 367.367)" fill="none" stroke="#000" stroke-miterlimit="10" stroke-width="0.956"/>
      </g>
      <path id="Path_32" data-name="Path 32" d="M82.056,298.642v-12.1l-7.635.408a21.493,21.493,0,0,0-2.114-5.116l5.684-5.106-8.559-8.559-5.106,5.684a21.494,21.494,0,0,0-5.116-2.114l.408-7.635h-12.1l.409,7.635a21.477,21.477,0,0,0-5.116,2.114L37.7,268.166l-8.558,8.559,5.684,5.106a21.455,21.455,0,0,0-2.115,5.116l-7.634-.408v12.1l7.634-.408a21.448,21.448,0,0,0,2.115,5.115l-5.684,5.107,8.558,8.558,5.107-5.684a21.438,21.438,0,0,0,5.116,2.115l-.409,7.634h12.1l-.408-7.634a21.455,21.455,0,0,0,5.116-2.115l5.106,5.684,8.559-8.558-5.684-5.107a21.486,21.486,0,0,0,2.114-5.115Zm-28.489,4.521A10.572,10.572,0,1,1,64.139,292.59,10.573,10.573,0,0,1,53.567,303.163Z" fill="#d4daff"/>
      <path id="Path_33" data-name="Path 33" d="M180.075,219.117v-13.8l-8.707.466a24.438,24.438,0,0,0-2.411-5.834l6.482-5.825-9.76-9.76-5.824,6.482a24.5,24.5,0,0,0-5.834-2.411l.465-8.707h-13.8l.465,8.707a24.48,24.48,0,0,0-5.834,2.411l-5.824-6.482-9.76,9.76,6.482,5.824a24.506,24.506,0,0,0-2.412,5.835l-8.706-.466v13.8l8.706-.466a24.489,24.489,0,0,0,2.412,5.835l-6.482,5.824,9.76,9.76,5.824-6.482A24.48,24.48,0,0,0,141.149,236l-.465,8.707h13.8L154.021,236a24.5,24.5,0,0,0,5.834-2.411l5.824,6.482,9.76-9.76-6.482-5.824a24.445,24.445,0,0,0,2.411-5.835Zm-32.49,5.156a12.057,12.057,0,1,1,12.057-12.057A12.058,12.058,0,0,1,147.585,224.273Z" fill="#d4daff"/>
      <path id="Path_34" data-name="Path 34" d="M59.437,362.093h290s-15-22.024-37-27.753-28.518,3.751-41.009-17.239-23.991-33.937-38.991-34.464-39.68,15.512-67.532-1.708c-32.635-20.177-59.135-2.578-60.635,23.864S52.937,322.574,59.437,362.093Z" fill="#ecffbf"/>
      <path id="Path_35" data-name="Path 35" d="M245.52,362.093s5.581-15.864,10.808-14.728,8.718,8.893,14.786,2.707,3.062-27.776,13.978-29.61,4.8,24.186,11.943,19.8c8.783-5.4,17.943-34.053,29.033-31.415s10.859,53.248,10.859,53.248Z" fill="#598048"/>
      <path id="Path_36" data-name="Path 36" d="M211.977,362.093l42.333-83.215,24.508,8.859L307.586,223.8l28.8,10.667,37.547-87.333,15.71,5.667V105.471l-45,33,15.1,4.667L322,199.471l-33.019-16.333-43.333,61.508L209.977,226.9,128.742,362.093Z" fill="#ffd817"/>
      <g id="Group_13" data-name="Group 13">
        <path id="Path_37" data-name="Path 37" d="M33.805,362.41s-12.024-45.023-3.069-46.343,7.935,9.481,16.584,9S42.042,246.3,62.586,243.026,95.409,317.9,105.71,309.947s32.156-51.211,35.159,52.091Z" fill="#8ead46"/>
        <path id="Path_38" data-name="Path 38" d="M62.586,243.026s4.2,69.257,21.559,119.384" fill="none" stroke="#525730" stroke-miterlimit="10" stroke-width="0.951"/>
        <path id="Path_39" data-name="Path 39" d="M69.123,244.714s-1.779,13.674-4.492,21.065" fill="none" stroke="#525730" stroke-miterlimit="10" stroke-width="0.951"/>
        <path id="Path_40" data-name="Path 40" d="M51.692,263.351s1.571,6.434,15.66,24.124" fill="none" stroke="#525730" stroke-miterlimit="10" stroke-width="0.951"/>
        <path id="Path_41" data-name="Path 41" d="M86.633,274.734s-2.838,46.7-10.613,59.352" fill="none" stroke="#525730" stroke-miterlimit="10" stroke-width="0.951"/>
        <path id="Path_42" data-name="Path 42" d="M30.736,316.067s6.324,20.076,28.786,46.343" fill="none" stroke="#525730" stroke-miterlimit="10" stroke-width="0.951"/>
        <path id="Path_43" data-name="Path 43" d="M50.492,293.784s8.373,30.573,30.054,57.355" fill="none" stroke="#525730" stroke-miterlimit="10" stroke-width="0.951"/>
        <path id="Path_44" data-name="Path 44" d="M40.9,322.37a138.627,138.627,0,0,1,2.729,18.8" fill="none" stroke="#525730" stroke-miterlimit="10" stroke-width="0.951"/>
        <path id="Path_45" data-name="Path 45" d="M28.983,340.147s10.273,7.252,24.858,15.328" fill="none" stroke="#525730" stroke-miterlimit="10" stroke-width="0.951"/>
      </g>
      <line id="Line_8" data-name="Line 8" x2="291.978" transform="translate(30.652 362.093)" fill="none" stroke="#292e4a" stroke-miterlimit="10" stroke-width="1.022"/>
      <g id="Group_14" data-name="Group 14">
        <path id="Rectangle_3" data-name="Rectangle 3" d="M15.738,0H170.6a15.737,15.737,0,0,1,15.737,15.737V83.322A15.738,15.738,0,0,1,170.6,99.06H15.737A15.737,15.737,0,0,1,0,83.323V15.738A15.738,15.738,0,0,1,15.738,0Z" transform="translate(178.957 212.425) rotate(90)" fill="#3747a3"/>
        <path id="Rectangle_4" data-name="Rectangle 4" d="M15.738,0H170.6a15.737,15.737,0,0,1,15.737,15.737V83.322A15.737,15.737,0,0,1,170.6,99.06H15.738A15.738,15.738,0,0,1,0,83.322V15.738A15.738,15.738,0,0,1,15.738,0Z" transform="translate(186.681 212.425) rotate(90)" fill="#4a60db"/>
        <path id="Path_46" data-name="Path 46" d="M170.943,217.2H155.23a1.9,1.9,0,0,0-1.814,1.337l-.726,2.341a3.11,3.11,0,0,1-2.972,2.19H124.584a3.111,3.111,0,0,1-2.972-2.19l-.726-2.341a1.9,1.9,0,0,0-1.814-1.337H103.359a10.96,10.96,0,0,0-10.96,10.96V383.021a10.96,10.96,0,0,0,10.96,10.959h67.584a10.96,10.96,0,0,0,10.96-10.959V228.162A10.96,10.96,0,0,0,170.943,217.2Z" fill="#292e4a"/>
        <path id="Path_47" data-name="Path 47" d="M144.119,219.352H130.184a.756.756,0,0,1-.757-.756h0a.757.757,0,0,1,.757-.757h13.935a.756.756,0,0,1,.756.757h0A.755.755,0,0,1,144.119,219.352Z" fill="#292e4a"/>
        <line id="Line_9" data-name="Line 9" y2="23.093" transform="translate(83.322 243.799)" fill="none" stroke="#fff" stroke-linecap="round" stroke-linejoin="round" stroke-width="1.447"/>
        <line id="Line_10" data-name="Line 10" y2="10.79" transform="translate(83.322 274.098)" fill="none" stroke="#fff" stroke-linecap="round" stroke-linejoin="round" stroke-width="1.447"/>
      </g>
      <g id="Group_15" data-name="Group 15">
        <path id="Path_48" data-name="Path 48" d="M299.477,391.581l18.255-104.45h134.78l-18.255,104.45Z" fill="#4a60db"/>
        <path id="Path_49" data-name="Path 49" d="M430.561,387.17H304.743l16.685-95.628H447.246Z" fill="#292e4a"/>
        <rect id="Rectangle_5" data-name="Rectangle 5" width="224.48" height="7.531" transform="translate(210.31 391.581)" fill="#3747a3"/>
        <rect id="Rectangle_6" data-name="Rectangle 6" width="103.123" height="7.531" transform="translate(210.31 391.581)" fill="#4a60db"/>
        <line id="Line_11" data-name="Line 11" x1="224.48" transform="translate(210.31 391.581)" fill="none" stroke="#3747a3" stroke-miterlimit="10" stroke-width="0.982"/>
      </g>
      <g id="Group_16" data-name="Group 16">
        <path id="Path_50" data-name="Path 50" d="M400.785,365.029s1.417,3.916.917,5.833-2,3.583-2.084,6.417.19,7.833,1.1,8,.286-3.75,1.1-4.084,3.56,5.759,3.56,5.759h8.167s-2.833-17.592-3.25-20.592S400.785,365.029,400.785,365.029Z" fill="#f9b989"/>
        <path id="Path_51" data-name="Path 51" d="M262.035,318.029s-13.167-1.084-16.5-1.917-12.083,1.917-12.083,1.917L248.114,330.1a24.169,24.169,0,0,1,7.671-2.98,28.943,28.943,0,0,1,6.75-.427Z" fill="#f9b989"/>
        <path id="Path_52" data-name="Path 52" d="M318.439,242.588c-.164,3.31-1.053,11.562-.542,15.388s2.511,6.5,6.5,5.882,7.529,16.214,7.529,16.214l8.564,1.28,6.187-9.392-5.788-10.3s4.193-11.374,2-18.048-18.03-11.915-23.97-9.738S318.439,242.588,318.439,242.588Z" fill="#f9b989"/>
        <path id="Path_53" data-name="Path 53" d="M326.859,270.969l9.842,3.894,2.083,4.5v-5.75l7.352-7.75,1.94,4.25,19.625,77.75h-29.25l-17.125-68.5,5.125-3.375Z" fill="#f70"/>
        <path id="Path_54" data-name="Path 54" d="M383.762,386.954h-59.73L335.2,347.862h45.363Z" fill="#fff"/>
        <path id="Path_55" data-name="Path 55" d="M326.452,275.987c2.916,7.958,16.041,63.292,18.062,70.792s3.188,28.166,3.188,28.166-17.334.334-21.25,0,1.25-24.333,1.083-29.833-10.667-34-10.667-34-19.666,17.167-22.666,17.5-34-.833-34-.833V316.945s26-1.5,28.833-3,20-21.333,24.167-26.333S321.2,276.2,326.452,275.987Z" fill="#6470b5"/>
        <path id="Path_56" data-name="Path 56" d="M310.577,298.862c-2.25.25-4.625,14.5-7.5,18.625a108.506,108.506,0,0,0-6.042,9.635c6.335-4.229,19.833-16.01,19.833-16.01C315.577,308.112,312.827,298.612,310.577,298.862Z" fill="#495285"/>
        <path id="Path_57" data-name="Path 57" d="M400.111,367.408h11.341l-4.463-25.033a84.069,84.069,0,0,0-8.785-26.421c-7.423-14-19-34.934-23.752-38.592-3.132-2.412-17.25-7.75-26.375-7.25,0,0,10.375,63.75,11.875,73.75s7.75,29.75,7.75,29.75h20.962l-4.9-28.694-5.56-26.806,11.839,15.914Z" fill="#6470b5"/>
        <path id="Path_58" data-name="Path 58" d="M378.2,318.112s-7.125-9.875-8.75-15.375-2.5-13.125-1.75-15.25-1.75-3-2.875,6.125-1.125,17.25,4.375,26.25,1.625,14.25,6,22.25,9.985,11.149,9.985,11.149Z" fill="#495285"/>
        <path id="Path_59" data-name="Path 59" d="M311.262,232.9c2.859-6.223,9.7-2.506,17.264-1.612s14.611,1.857,17.06,7.241-.587,16.346-4.7,23.125c0,0-3.322-4.143-3.356-6.994s3.355-4.687,1.949-7.442-3.424-1.014-3.871.171-.714,2.431-1.23,1.808.442-3.174.158-5.3-1.31-5.277-6.059-4.556a31.152,31.152,0,0,1-9.737-.345l-.3,3.588S308.044,239.909,311.262,232.9Z"/>
      </g>
      <path id="Path_60" data-name="Path 60" d="M99.183,127.3H211.591c17.764,0,25.115-2.234,15.927-8.616s-11.946-6.7-15.008-13.084S202.4,95.073,192.6,96.349s-16.421,4.787-23.985-2.872-14.608-19.465-32.985-12.445c-19.155,7.318-20.079,24.891-35.529,28.4S67.635,127.3,99.183,127.3Z" fill="#a6b1ed"/>
      <g id="Group_17" data-name="Group 17">
        <path id="Path_61" data-name="Path 61" d="M192.174,272.58a13.026,13.026,0,0,0,9.319-8.93c2.6-7.756,9.692-15.856,22.132-14.7s18.733,10.226,17.033,23.629-13.181,15.413-21.689,15.276S204.62,278.895,200.959,276A19.267,19.267,0,0,0,192.174,272.58Z" fill="#4a60db"/>
        <path id="Path_62" data-name="Path 62" d="M231.291,270.389v-4.076l-2.571.137a7.2,7.2,0,0,0-.713-1.723l1.915-1.72-2.883-2.883-1.72,1.914a7.236,7.236,0,0,0-1.723-.712l.137-2.571h-4.077l.138,2.571a7.236,7.236,0,0,0-1.723.712l-1.72-1.914-2.883,2.883,1.914,1.72a7.235,7.235,0,0,0-.712,1.723l-2.572-.137v4.076l2.572-.137a7.235,7.235,0,0,0,.712,1.723l-1.914,1.72,2.883,2.883,1.72-1.914a7.236,7.236,0,0,0,1.723.712l-.138,2.572h4.077l-.137-2.572a7.236,7.236,0,0,0,1.723-.712l1.72,1.914,2.883-2.883-1.915-1.72a7.2,7.2,0,0,0,.713-1.723Zm-9.6,1.523a3.561,3.561,0,1,1,3.561-3.561A3.561,3.561,0,0,1,221.7,271.912Z" fill="#fff"/>
      </g>
      <g id="Group_18" data-name="Group 18">
        <rect id="Rectangle_7" data-name="Rectangle 7" width="30.427" height="40.371" transform="translate(258.328 129.867)" fill="#ffeb8a"/>
        <line id="Line_12" data-name="Line 12" x2="5.966" transform="translate(261.775 136.97)" fill="none" stroke="#ffa200" stroke-miterlimit="10" stroke-width="0.715"/>
        <line id="Line_13" data-name="Line 13" x2="22.406" transform="translate(261.775 142.926)" fill="none" stroke="#ffa200" stroke-miterlimit="10" stroke-width="0.715"/>
        <line id="Line_14" data-name="Line 14" x2="22.406" transform="translate(261.775 148.882)" fill="none" stroke="#ffa200" stroke-miterlimit="10" stroke-width="0.715"/>
        <line id="Line_15" data-name="Line 15" x2="22.406" transform="translate(261.775 154.838)" fill="none" stroke="#ffa200" stroke-miterlimit="10" stroke-width="0.715"/>
        <line id="Line_16" data-name="Line 16" x2="22.406" transform="translate(261.775 160.794)" fill="none" stroke="#ffa200" stroke-miterlimit="10" stroke-width="0.715"/>
      </g>
      <g id="Group_20" data-name="Group 20">
        <path id="Path_63" data-name="Path 63" d="M253.592,212.91c4.085-3.857,45.475-1.6,48.345.813s.929,19.012,1.01,25.215c.047,3.631,3.416,10.88,7.7,11.333-4.932,2.567-12.785.755-16.712-1.51s-5.187-1.8-12.636-1.8H257.083c-4.9,0-6.343-4.848-6.343-12.248S250.874,215.478,253.592,212.91Z" fill="#4a60db"/>
        <g id="Group_19" data-name="Group 19">
          <path id="Path_64" data-name="Path 64" d="M280.387,219.968a8.339,8.339,0,0,1,2.362.77,7.049,7.049,0,0,1,1.7,1.2,5.12,5.12,0,0,1,1.043,1.419,4.025,4.025,0,0,1,.412,1.393.6.6,0,0,1-.205.527.794.794,0,0,1-.537.2h-1.922a1.15,1.15,0,0,1-.7-.176,1.812,1.812,0,0,1-.426-.473,3.556,3.556,0,0,0-1.249-1.176,4.931,4.931,0,0,0-2.486-.5,5.984,5.984,0,0,0-1.359.149,3.943,3.943,0,0,0-1.126.432,2.307,2.307,0,0,0-.755.69,1.594,1.594,0,0,0-.274.919,1.615,1.615,0,0,0,.3,1.014,2.354,2.354,0,0,0,.975.676,10.769,10.769,0,0,0,1.73.527q1.058.245,2.568.568a16.191,16.191,0,0,1,2.787.825A6.363,6.363,0,0,1,285.1,230.1a3.834,3.834,0,0,1,1.044,1.527,5.753,5.753,0,0,1,.316,1.974,4.776,4.776,0,0,1-.412,1.974,5.1,5.1,0,0,1-1.2,1.65,6.641,6.641,0,0,1-1.909,1.217,9.649,9.649,0,0,1-2.554.676v1.838a.7.7,0,0,1-.219.514.722.722,0,0,1-.523.216h-2.224a.717.717,0,0,1-.521-.216.694.694,0,0,1-.22-.514v-1.838a10.109,10.109,0,0,1-2.321-.636,7.661,7.661,0,0,1-1.9-1.1,5.383,5.383,0,0,1-1.3-1.5,4.125,4.125,0,0,1-.548-1.879.591.591,0,0,1,.205-.527.8.8,0,0,1,.536-.2h1.923a1.3,1.3,0,0,1,.713.162,1.216,1.216,0,0,1,.412.487,5.105,5.105,0,0,0,.468.7,2.522,2.522,0,0,0,.74.622,4.562,4.562,0,0,0,1.168.446,7.311,7.311,0,0,0,1.744.176,10.19,10.19,0,0,0,1.592-.122,4.668,4.668,0,0,0,1.346-.406,2.853,2.853,0,0,0,.934-.7,1.548,1.548,0,0,0,.357-1.041,1.311,1.311,0,0,0-.384-.973,3.1,3.1,0,0,0-1.168-.649,16.39,16.39,0,0,0-1.936-.514q-1.153-.243-2.664-.622a14.278,14.278,0,0,1-2.4-.771,5.647,5.647,0,0,1-1.7-1.1,4.093,4.093,0,0,1-1-1.527,5.992,5.992,0,0,1-.33-2.1,4.6,4.6,0,0,1,.412-1.947,5.486,5.486,0,0,1,1.14-1.609,6.207,6.207,0,0,1,1.745-1.19,9,9,0,0,1,2.224-.689v-1.839a.693.693,0,0,1,.22-.513.714.714,0,0,1,.521-.217h2.224a.719.719,0,0,1,.523.217.7.7,0,0,1,.219.513Z" fill="#ffd817"/>
        </g>
      </g>
      <g id="Group_21" data-name="Group 21">
        <path id="Path_65" data-name="Path 65" d="M163.577,354.362l2.322,39.583H102.047a104,104,0,0,0,1.655-15.958,37.81,37.81,0,0,1,8.5-23.625Z" fill="#fff"/>
        <path id="Path_66" data-name="Path 66" d="M144.468,393.945H165.9l-2.322-39.583h-8.17Z" fill="#d1d1d1"/>
        <path id="Path_67" data-name="Path 67" d="M183.285,235.7s-.667,9,.5,10.583.727,2.583-.345,3.083-1.072,8.833-3.572,9.417-4.666-1.309-5.583,1.345A91.576,91.576,0,0,0,172.2,269.2l-15.75-1.083,4.416-11.667s-3-8.666-1-16.166S182.785,228.2,183.285,235.7Z" fill="#f59462"/>
        <path id="Path_68" data-name="Path 68" d="M152.7,264.612l26.362,3.715a1.025,1.025,0,0,1,.851,1.272l-1.547,6.013a93.687,93.687,0,0,1,.834,16.333c-.5,7-6.167,31.334-7.667,38.834s-2.667,26-6.5,26.166-48.333,0-56,0,3.833-7.833,7.667-14.666,8.5-29.834,14.666-43,19.834-27.917,20.167-30.792S151.231,264.4,152.7,264.612Z" fill="#6470b5"/>
        <path id="Path_69" data-name="Path 69" d="M150.441,291.371c-2.785-3.506-4.348-2.634-2.856,3.241s3.367,11.125,8.867,14.625c4.964,3.16,6.163,21.9,14.257,26.712.276-1.98.545-3.768.826-5.17,1.226-6.132,5.237-23.512,6.932-33.476C178.462,297.3,152.784,294.322,150.441,291.371Z" fill="#495285"/>
        <path id="Path_70" data-name="Path 70" d="M183.952,298.862s9.5,12.862,12.583,13.764,33.917,3.4,36.583,3.4,8.75,3.75,11.167,4.916,8.75,6.5,5.5,8.417-8.917,1.75-12.167,0-5.916-4.083-8.833-4.083-31.506.725-37.75-1.167c-8.667-2.625-22.117-17.25-24.308-19.167Z" fill="#f59462"/>
        <path id="Path_71" data-name="Path 71" d="M230.389,327.487c.25-1.9-.125-3.812,2.625-2.812s5.563,3.312,7.75,3.937-.062,3.188-1.812,3.188S230.137,329.4,230.389,327.487Z" fill="#f9b989"/>
        <path id="Path_72" data-name="Path 72" d="M230.077,317.55s11.312-2.064,14.187-1.6,1.01,1.652-2.25,2.657C234.514,320.925,227.035,319.07,230.077,317.55Z" fill="#f9b989"/>
        <path id="Path_73" data-name="Path 73" d="M167.035,245.112s-3-3-3.833,0,2.5,5.5,1.916,7.167-3.083,8.166-4.916,7.833.5-4-1.667-7.333-5-7.333-3.167-14.833,7.667-5.5,9.667-8.334,3.667-5.666,11.5-4.833,11.333-3.8,14.667-.148,2.833,10.315-5.5,12.148-10-.667-11.75,1.333S169.2,244.946,167.035,245.112Z" fill="#995417"/>
        <path id="Path_74" data-name="Path 74" d="M148.618,289.279l16.334,18.75,20.916-8.084s-9.833-14.833-13.166-18.833-9.167-8.083-14.167-7.25S144.535,283.862,148.618,289.279Z" fill="#6470b5"/>
        <path id="Path_75" data-name="Path 75" d="M169.352,277.817s4.521,3.242,9.935,12.393" fill="none" stroke="#495285" stroke-miterlimit="10" stroke-width="1"/>
      </g>
      <line id="Line_17" data-name="Line 17" x2="118.5" transform="translate(68.39 398.758)" fill="none" stroke="#292e4a" stroke-miterlimit="10" stroke-width="1.022"/>
      <line id="Line_18" data-name="Line 18" x2="247.054" transform="translate(206.647 398.758)" fill="none" stroke="#292e4a" stroke-miterlimit="10" stroke-width="1.022"/>
    </g>
  </g>
</svg>
