<svg id="Group_62" data-name="Group 62" xmlns="http://www.w3.org/2000/svg" xmlns:xlink="http://www.w3.org/1999/xlink" width="230.107" height="150.159" viewBox="0 0 230.107 150.159">
  <defs>
    <clipPath id="clip-path">
      <path id="Intersection_1" data-name="Intersection 1" fill="none"/>
    </clipPath>
  </defs>
  <g id="Group_20" data-name="Group 20">
    <g id="Group_18" data-name="Group 18">
      <g id="Group_14" data-name="Group 14">
        <g id="Group_9" data-name="Group 9">
          <path id="Path_1" data-name="Path 1" d="M177.993,43.3A53.231,53.231,0,0,0,139.867,58a27.653,27.653,0,0,1-19.031,7.768H103.5a5.6,5.6,0,0,0-5.6,5.6h0a5.6,5.6,0,0,0,5.6,5.6h14.385a6.777,6.777,0,0,1,6.588,8.281l-.084.389a6.822,6.822,0,0,1-6.642,5.478H81.179a5.765,5.765,0,0,0-5.816,5.051,5.6,5.6,0,0,0,5.576,6.152h36.812a6.822,6.822,0,0,1,6.642,5.478l.084.388a6.777,6.777,0,0,1-6.588,8.282H95.847a5.764,5.764,0,0,0-5.816,5.052,5.6,5.6,0,0,0,5.575,6.152h25.226a27.8,27.8,0,0,1,19.093,7.823,53.43,53.43,0,1,0,38.068-92.2Z" fill="#00ffeb"/>
        </g>
        <g id="Group_10" data-name="Group 10">
          <path id="Path_2" data-name="Path 2" d="M214.314,65.186c-18.205-23.559-52.328-22.746-71.234-3.319a25.526,25.526,0,0,1-18.338,7.524H98.281a5.548,5.548,0,0,0-.378,1.981h0a5.6,5.6,0,0,0,5.6,5.6h14.384a6.761,6.761,0,0,1,6.6,8.227c-.035.158-.069.315-.1.473a6.848,6.848,0,0,1-6.693,5.448H83.617c-5.373,0-7.976,2.139-8.254,5.051a5.6,5.6,0,0,0,5.576,6.152h36.813a6.773,6.773,0,0,1,6.622,5.387q.056.261.112.52a6.761,6.761,0,0,1-6.592,8.241H97.856c-4.941,0-7.547,2.139-7.825,5.052a5.6,5.6,0,0,0,5.575,6.152h25.226a27.8,27.8,0,0,1,19.093,7.823,53.414,53.414,0,0,0,86.056-18.195C229.642,98.976,226.949,80.05,214.314,65.186Z" fill="#08ccbd"/>
          <path id="Path_3" data-name="Path 3" d="M229.978,92.969a53.422,53.422,0,0,0-90.1-34.976,27.677,27.677,0,0,1-19.041,7.777H103.5a5.589,5.589,0,0,0-5.224,3.621h22.174A36.958,36.958,0,0,0,145.222,59.8c19.248-17.391,51.555-17.313,69.092,5.382,12.635,14.864,15.328,33.79,11.667,52.119A53.4,53.4,0,0,0,229.978,92.969Z" fill="#08ccbd"/>
        </g>
        <g id="Group_13" data-name="Group 13">
          <path id="Path_4" data-name="Path 4" d="M140.034,118.843a2.255,2.255,0,0,1-1.985-1.181,43.988,43.988,0,0,1-5.3-20.938,2.257,2.257,0,1,1,4.513,0,39.461,39.461,0,0,0,4.755,18.784,2.258,2.258,0,0,1-1.98,3.335Z" fill="#fff"/>
          <path id="Path_5" data-name="Path 5" d="M176.671,140.649a43.834,43.834,0,0,1-29.43-11.316,2.257,2.257,0,1,1,3.025-3.35,39.413,39.413,0,1,0,26.4-68.672,2.257,2.257,0,0,1,0-4.513,43.926,43.926,0,1,1,0,87.851Z" fill="#fff"/>
          <g id="Group_12" data-name="Group 12" clip-path="url(#clip-path)">
            <g id="Group_11" data-name="Group 11">
              <circle id="Ellipse_2" data-name="Ellipse 2" cx="53.435" cy="53.435" r="53.435" transform="translate(123.236 43.288)" fill="#ff7429"/>
            </g>
          </g>
        </g>
      </g>
      <g id="Group_15" data-name="Group 15">
        <path id="Path_8" data-name="Path 8" d="M87.038,65.77H81.5a5.59,5.59,0,0,0-5.229,3.638H92.267A5.589,5.589,0,0,0,87.038,65.77Z" fill="#00ffeb"/>
        <path id="Path_9" data-name="Path 9" d="M76.274,69.408A5.565,5.565,0,0,0,81.5,76.974h5.535a5.563,5.563,0,0,0,5.229-7.566Z" fill="#08ccbd"/>
      </g>
      <g id="Group_16" data-name="Group 16">
        <path id="Path_10" data-name="Path 10" d="M56.178,102.325h5.535a5.6,5.6,0,0,0,5.6-5.6h0a5.6,5.6,0,0,0-5.6-5.6H56.178a5.6,5.6,0,0,0-5.6,5.6h0A5.6,5.6,0,0,0,56.178,102.325Z" fill="#08ccbd"/>
      </g>
      <g id="Group_17" data-name="Group 17">
        <rect id="Rectangle_2" data-name="Rectangle 2" width="16.739" height="11.204" rx="5.602" transform="translate(69.263 116.45)" fill="#08ccbd"/>
      </g>
    </g>
    <g id="Group_19" data-name="Group 19">
      <path id="Path_11" data-name="Path 11" d="M187.784,106.244a2.246,2.246,0,0,1-.968-.219l-13.381-6.362a2.257,2.257,0,0,1-.971-3.191L187.1,71.88a2.257,2.257,0,0,1,3.879,2.307L177.609,96.651l11.146,5.3a2.257,2.257,0,0,1-.971,4.3Z" fill="#fff"/>
    </g>
  </g>
</svg>
